<svg width="60" height="60" viewBox="0 0 60 60" fill="none" xmlns="http://www.w3.org/2000/svg">
<g clip-path="url(#clip0_31_2)">
<g clip-path="url(#clip1_31_2)">
<rect width="60" height="60" fill="white"/>
<path d="M34.5158 34.4271C34.4467 34.4963 34.4467 34.4963 34.3776 34.5655C32.8563 36.4337 29.6062 40.0317 29.1222 40.5852C23.7285 47.0894 20.6167 48.3348 17.1592 48.6116C16.5369 48.6808 15.9146 48.6808 15.1539 48.6808C9.20702 48.6808 3.39844 43.6989 3.39844 37.3332C3.39844 31.4518 7.54743 26.6083 13.1486 25.9856C13.5635 25.9164 14.4624 25.8472 15.4997 25.9856C16.4678 26.1239 18.2656 26.8851 18.2656 27.8538C18.1965 27.8538 18.1273 27.8538 18.0582 27.7846C16.606 27.4386 15.8454 27.5078 15.0848 27.577C13.1486 27.7846 11.8347 28.4073 10.7975 29.1684C8.72297 30.8983 7.20168 33.3892 7.20168 36.4337C7.20168 41.2772 11.0741 45.152 15.7071 45.152C18.1273 45.152 20.3401 44.1833 21.9306 42.5226C22.2072 42.2459 22.4838 42.0383 22.6912 41.8307C24.904 39.4782 29.5371 34.3579 29.5371 33.2508C29.5371 32.0053 26.7711 29.1684 23.9359 27.5078C19.8561 25.0861 19.7178 23.2178 19.7178 21.7648C19.7178 17.1981 26.7711 14.7763 33.5478 15.4682C35.2073 21.5572 39.9787 21.9032 40.8085 21.9724C43.2979 22.18 44.5426 21.9724 45.9947 21.6264C47.516 21.2804 47.516 20.8653 47.516 20.8653C47.516 20.8653 48.0001 21.4188 46.8245 22.18C45.649 22.9411 42.4681 24.1174 40.3244 24.1174C35.7605 24.1174 33.2712 22.18 30.9201 19.6198C25.7338 20.035 25.2498 21.5572 25.5264 22.0416C26.287 23.1487 34.3084 28.6841 35.069 28.5457C35.968 28.4073 39.5638 25.3628 45.0958 25.8472C51.3193 25.9856 56.3672 31.0366 56.3672 37.264C56.3672 43.6297 51.3884 48.75 44.8192 48.75C39.1489 48.75 35.5531 44.3217 36.5903 42.7302C36.6595 42.7994 36.7286 42.8686 36.7978 42.8686C38.3882 44.3217 41.0851 45.9131 43.7819 45.9131C48.899 45.9131 53.048 42.1075 53.048 37.4024C53.048 32.6973 49.5905 29.5144 44.5426 29.03C42.3298 28.8225 41.0851 29.2376 39.7021 29.9296C38.3882 30.5523 36.6595 32.1437 35.3456 33.4584C35.3456 33.4584 35.3456 33.4584 35.3456 33.3892C35.2765 33.4584 35.2073 33.5276 35.1382 33.5968C34.8616 33.9427 34.6541 34.2195 34.5158 34.4271Z" fill="#FF3940"/>
<path d="M40.3411 19.1016C42.014 19.0317 43.8959 17.5651 43.8262 15.3302C43.7565 13.0953 41.5261 11.7683 39.5047 11.4191C35.462 10.7905 31.3496 11.9778 30.2344 13.9333C30.2344 13.9333 30.6526 13.7937 31.2799 13.5841C32.8133 13.1651 34.4165 13.3746 35.6711 14.1429C36.2287 14.4921 36.3681 15.1905 36.3681 15.3302C36.2984 17.9841 38.6683 19.1016 40.3411 19.1016Z" fill="#FF3940"/>
</g>
</g>
<defs>
<clipPath id="clip0_31_2">
<rect width="60" height="60" fill="white"/>
</clipPath>
<clipPath id="clip1_31_2">
<rect width="60" height="60" fill="white"/>
</clipPath>
</defs>
</svg>
